Coordinates
version=1
nRows=16
nColumns=63
inDegrees=yes

Units are S.I. units (second, meters, Newtons, ...)
If the header above contains a line with 'inDegrees', this indicates whether rotational values are in degrees (yes) or radians (no).

endheader
time	pelvis_tilt	pelvis_list	pelvis_rotation	pelvis_tx	pelvis_ty	pelvis_tz	hip_flexion_r	hip_adduction_r	hip_rotation_r	knee_angle_r	knee_angle_r_beta	ankle_angle_r	subtalar_angle_r	mtp_angle_r	hip_flexion_l	hip_adduction_l	hip_rotation_l	knee_angle_l	knee_angle_l_beta	ankle_angle_l	subtalar_angle_l	mtp_angle_l	L5_S1_Flex_Ext	L5_S1_Lat_Bending	L5_S1_axial_rotation	L4_L5_Flex_Ext	L4_L5_Lat_Bending	L4_L5_axial_rotation	L3_L4_Flex_Ext	L3_L4_Lat_Bending	L3_L4_axial_rotation	L2_L3_Flex_Ext	L2_L3_Lat_Bending	L2_L3_axial_rotation	L1_L2_Flex_Ext	L1_L2_Lat_Bending	L1_L2_axial_rotation	L1_T12_Flex_Ext	L1_T12_Lat_Bending	L1_T12_axial_rotation	Abs_r3	Abs_r2	Abs_r1	Abs_t1	Abs_t2	neck_flexion	neck_bending	neck_rotation	arm_flex_r	arm_add_r	arm_rot_r	elbow_flex_r	pro_sup_r	wrist_flex_r	wrist_dev_r	arm_flex_l	arm_add_l	arm_rot_l	elbow_flex_l	pro_sup_l	wrist_flex_l	wrist_dev_l
0.000000	-6.088456	-3.455417	94.631474	0.247717	0.747054	0.725943	3.768359	-2.642836	-18.514903	3.737994	0.065240	25.978407	12.166506	0.000000	7.259836	2.566710	1.334244	4.285805	0.074801	26.573397	8.394758	0.000000	0.371173	-0.235792	-0.002891	0.689305	-0.313604	-0.003072	0.609800	-0.573306	-0.003072	0.424213	-0.573306	-0.002530	0.344671	-0.480828	-0.002349	0.212088	-0.365242	-0.002168	2.651251	-2.667331	-0.016080	0.000000	0.000000	27.701682	0.380382	-4.748540	14.791813	-7.399864	49.201505	49.894554	60.965803	5.665876	25.008153	12.584238	-10.398689	47.142016	56.960325	90.290269	5.633616	22.990375
0.016667	-6.859387	-3.541349	93.561610	0.248964	0.746413	0.726440	3.689520	-3.384879	-15.147785	3.163783	0.055218	25.616508	9.935728	0.000000	7.248431	3.274341	-0.017236	4.190907	0.073145	26.701657	9.262652	0.000000	0.372300	-0.346544	0.317169	0.691399	-0.460903	0.336992	0.611652	-0.842587	0.336992	0.425502	-0.842587	0.277523	0.345718	-0.706672	0.257700	0.212732	-0.536796	0.237877	2.659304	-3.920174	1.763998	0.000000	0.000000	27.658975	-1.170500	-9.356791	12.342663	-7.566731	46.850669	51.255669	53.205195	2.801270	26.404536	12.413632	-11.236323	48.878856	57.382448	87.194495	6.188734	19.880759
0.033333	-7.471272	-3.595005	92.701270	0.249907	0.745916	0.727063	3.636983	-3.979944	-12.491061	2.718468	0.047446	25.297692	8.163772	0.000000	7.252825	3.831745	-1.199066	4.165883	0.072708	26.756516	9.996611	0.000000	0.371538	-0.434931	0.568197	0.689984	-0.578458	0.603709	0.610400	-1.057491	0.603709	0.424631	-1.057491	0.497172	0.345010	-0.886911	0.461660	0.212297	-0.673708	0.426147	2.653861	-4.920025	3.160139	0.000000	0.000000	27.565709	-2.424777	-13.159372	10.388532	-7.749089	45.040637	52.360943	47.009683	0.693570	27.377427	12.218079	-11.943348	50.216909	57.786684	84.402319	6.661993	17.306876
0.050000	-7.938026	-3.620254	92.030892	0.250578	0.745552	0.727795	3.608957	-4.440194	-10.475374	2.390231	0.041717	25.017303	6.801855	0.000000	7.271472	4.252220	-2.218980	4.202696	0.073351	26.744875	10.601043	0.000000	0.369125	-0.502891	0.757179	0.685501	-0.668844	0.804503	0.606435	-1.222728	0.804503	0.421872	-1.222728	0.662532	0.342769	-1.025494	0.615208	0.210918	-0.778977	0.567884	2.636620	-5.688799	4.211203	0.000000	0.000000	27.429228	-3.410170	-16.224989	8.882665	-7.944088	43.714324	53.233902	42.253193	-0.728666	27.972627	12.006819	-12.528450	51.200182	58.168782	81.905818	7.065216	15.225129
0.066667	-8.273565	-3.620966	91.530913	0.251007	0.745307	0.728617	3.603655	-4.777795	-9.031367	2.167253	0.037826	24.770685	5.801189	0.000000	7.302826	4.549066	-3.084712	4.293312	0.074932	26.673640	11.080355	0.000000	0.365297	-0.552360	0.891103	0.678393	-0.734639	0.946797	0.600147	-1.343008	0.946797	0.417498	-1.343008	0.779715	0.339215	-1.126372	0.724021	0.208731	-0.855606	0.668327	2.609280	-6.248406	4.956048	0.000000	0.000000	27.256876	-4.154405	-18.622348	7.778303	-8.148882	42.814640	53.898072	38.809649	-1.536882	28.235934	11.789092	-13.000313	51.872685	58.524492	79.697069	7.410229	13.591920
0.083333	-8.491806	-3.601010	91.181769	0.251227	0.745167	0.729511	3.619286	-5.004912	-8.089685	2.037713	0.035565	24.553182	5.112991	0.000000	7.345340	4.735581	-3.803995	4.429695	0.077313	26.549713	11.438955	0.000000	0.360294	-0.585276	0.976956	0.669101	-0.778417	1.038015	0.591926	-1.423040	1.038015	0.411780	-1.423040	0.854836	0.334569	-1.193495	0.793777	0.205872	-0.906593	0.732717	2.573541	-6.620761	5.433534	0.000000	0.000000	27.055995	-4.685203	-20.420154	7.028689	-8.360623	42.284497	54.376978	36.552977	-1.802520	28.213147	11.574137	-13.367623	52.278427	58.849563	77.768150	7.708856	12.363649
0.100000	-8.606664	-3.564257	90.963899	0.251270	0.745120	0.730459	3.654060	-5.133709	-7.580969	1.989794	0.034728	24.360138	4.688474	0.000000	7.397467	4.825064	-4.384563	4.603809	0.080352	26.379999	11.681251	0.000000	0.354352	-0.603576	1.021724	0.658067	-0.802756	1.085582	0.582165	-1.467535	1.085582	0.404989	-1.467535	0.894008	0.329051	-1.230813	0.830151	0.202477	-0.934940	0.766293	2.531102	-6.827776	5.682522	0.000000	0.000000	26.833930	-5.030287	-21.687114	6.587068	-8.576462	42.066808	54.694148	35.357102	-1.597023	27.950065	11.371195	-13.639066	52.461417	59.139745	76.111139	7.972922	11.496719
0.116667	-8.632056	-3.514577	90.857739	0.251166	0.745153	0.731442	3.706190	-5.176350	-7.435863	2.011675	0.035110	24.186898	4.478854	0.000000	7.457661	4.830814	-4.834151	4.807620	0.083909	26.171399	11.811650	0.000000	0.347710	-0.609197	1.032395	0.645733	-0.810233	1.096919	0.571253	-1.481203	1.096919	0.397398	-1.481203	0.903345	0.322884	-1.242275	0.838821	0.198682	-0.943647	0.774296	2.483660	-6.891363	5.741869	0.000000	0.000000	26.598023	-5.217382	-22.491934	6.406681	-8.793551	42.104484	54.873106	35.095950	-0.991833	27.492487	11.189505	-13.823327	52.465663	59.390787	74.718114	8.214251	10.947531
0.133333	-8.581897	-3.455838	90.843726	0.250948	0.745252	0.732443	3.773885	-5.145002	-7.585011	2.091539	0.036504	24.028806	4.435344	0.000000	7.524377	4.766132	-5.160493	5.033090	0.087844	25.930819	11.834560	0.000000	0.340606	-0.604077	1.015955	0.632540	-0.803422	1.079452	0.559582	-1.468752	1.079452	0.389279	-1.468752	0.888960	0.316287	-1.231833	0.825463	0.194622	-0.935715	0.761966	2.432916	-6.833435	5.650435	0.000000	0.000000	26.355619	-5.274210	-22.903319	6.440771	-9.009044	42.340438	54.937379	35.643445	-0.058394	26.886212	11.038307	-13.929090	52.335175	59.598439	73.581152	8.444668	10.672488
0.150000	-8.470104	-3.391911	90.902299	0.250648	0.745404	0.733444	3.855355	-5.051827	-7.959056	2.217565	0.038704	23.881205	4.509161	0.000000	7.596067	4.644314	-5.371322	5.272185	0.092017	25.665161	11.754388	0.000000	0.333278	-0.590151	0.979391	0.618930	-0.784901	1.040603	0.547542	-1.434893	1.040603	0.380903	-1.434893	0.856967	0.309482	-1.203436	0.795755	0.190435	-0.914144	0.734543	2.380569	-6.675906	5.447081	0.000000	0.000000	26.114060	-5.228495	-22.989976	6.642582	-9.220091	42.717581	54.910492	36.873515	1.131853	26.177039	10.926840	-13.965043	52.113962	59.758449	72.692332	8.675997	10.627990
0.166667	-8.310593	-3.326665	91.013893	0.250297	0.745596	0.734425	3.948813	-4.908993	-8.488640	2.377934	0.041503	23.739439	4.651518	0.000000	7.671186	4.478661	-5.474372	5.516870	0.096288	25.381328	11.575542	0.000000	0.325962	-0.569358	0.929691	0.605345	-0.757246	0.987797	0.535524	-1.384336	0.987797	0.372542	-1.384336	0.813480	0.302689	-1.161034	0.755374	0.186255	-0.881935	0.697268	2.328316	-6.440687	5.170664	0.000000	0.000000	25.880691	-5.107959	-22.820611	6.965357	-9.423844	43.178826	54.815972	38.660082	2.507463	25.410767	10.864345	-13.939870	51.846033	59.866569	72.043730	8.920064	10.770440
0.183333	-8.131781	-3.279688	91.112172	0.249992	0.745807	0.735337	4.056673	-4.733077	-8.848699	2.520112	0.043984	23.547700	4.558069	0.000000	7.750369	4.300653	-5.415957	5.712539	0.099703	25.097814	11.196367	0.000000	0.319541	-0.546064	0.906645	0.593420	-0.726265	0.963310	0.524974	-1.327699	0.963310	0.365204	-1.327699	0.793314	0.296726	-1.113533	0.736649	0.182586	-0.845852	0.679984	2.282452	-6.177180	5.042488	0.000000	0.000000	25.684509	-5.049424	-22.674924	7.226985	-9.641554	43.555155	54.761386	39.708204	3.445109	24.516090	10.918125	-13.835628	51.635850	59.902874	71.393802	9.219253	11.048879
0.200000	-7.939331	-3.236402	91.203179	0.249743	0.746030	0.736188	4.167644	-4.535790	-9.253324	2.672707	0.046648	23.368447	4.500784	0.000000	7.818046	4.109841	-5.245593	5.906652	0.103091	24.774216	10.664926	0.000000	0.313525	-0.519844	0.882438	0.582248	-0.691393	0.937590	0.515091	-1.263950	0.937590	0.358328	-1.263950	0.772133	0.291140	-1.060067	0.716981	0.179148	-0.805239	0.661828	2.239480	-5.880585	4.907853	0.000000	0.000000	25.513840	-4.947139	-22.339847	7.499333	-9.817545	43.765201	54.649762	41.768750	4.878784	23.890575	11.094035	-13.695967	51.605706	59.826469	71.222596	9.671356	11.375663
0.216667	-7.752354	-3.203522	91.288003	0.249585	0.746244	0.736948	4.281294	-4.334731	-9.667470	2.825112	0.049307	23.199510	4.443208	0.000000	7.885419	3.924538	-4.980611	6.101851	0.106497	24.433479	10.018823	0.000000	0.308562	-0.494346	0.858442	0.573030	-0.657480	0.912094	0.506936	-1.201953	0.912094	0.352655	-1.201953	0.751136	0.286530	-1.008070	0.697484	0.176312	-0.765742	0.643831	2.204024	-5.592142	4.774394	0.000000	0.000000	25.377467	-4.823790	-21.933173	7.753530	-9.939416	43.831545	54.507352	44.559357	6.521097	23.625407	11.353878	-13.547615	51.722017	59.678443	71.395979	10.174280	11.748739
0.233333	-7.571640	-3.184566	91.362753	0.249487	0.746439	0.737608	4.394015	-4.128471	-9.833317	2.960070	0.051663	22.988109	4.069202	0.000000	7.959153	3.740982	-4.752491	6.294148	0.109854	24.138275	9.483286	0.000000	0.304524	-0.470025	0.844294	0.565532	-0.625134	0.897062	0.500303	-1.142819	0.897062	0.348041	-1.142819	0.738757	0.282781	-0.958476	0.685988	0.174005	-0.728069	0.633220	2.175188	-5.317020	4.695707	0.000000	0.000000	25.278558	-4.754828	-21.591736	7.959744	-10.064852	43.825089	54.431583	47.561299	7.905836	23.443678	11.703166	-13.378635	52.000941	59.455087	71.944888	10.716899	12.107891
0.250000	-7.416141	-3.180617	91.410968	0.249463	0.746602	0.738145	4.514420	-3.944328	-9.867488	3.093447	0.053991	22.772635	3.577351	0.000000	8.026493	3.581629	-4.513064	6.450118	0.112576	23.890025	8.997743	0.000000	0.301451	-0.449336	0.842715	0.559824	-0.597617	0.895384	0.495254	-1.092516	0.895384	0.344528	-1.092516	0.737375	0.279927	-0.916287	0.684706	0.172249	-0.696022	0.632036	2.153233	-5.082983	4.686925	0.000000	0.000000	25.219180	-4.733733	-21.341829	8.088747	-10.169336	43.699118	54.435855	50.554765	8.940291	23.344391	12.084874	-13.207273	52.355903	59.197142	72.664342	11.255826	12.454063
